<svg xmlns="http://www.w3.org/2000/svg" x="0px" y="0px"
width="48" height="48"
viewBox="0 0 226 226"
style=" fill:#000000;"><g fill="none" fill-rule="nonzero" stroke="none" stroke-width="1" stroke-linecap="butt" stroke-linejoin="miter" stroke-miterlimit="10" stroke-dasharray="" stroke-dashoffset="0" font-family="none" font-weight="none" font-size="none" text-anchor="none" style="mix-blend-mode: normal"><path d="M0,226v-226h226v226z" fill="none"></path><g><path d="M197.75,174.20833c0,13.00442 -10.53725,23.54167 -23.54167,23.54167h-122.41667c-12.99971,0 -23.54167,-10.53725 -23.54167,-23.54167v-122.41667c0,-13.00442 10.54196,-23.54167 23.54167,-23.54167h122.41667c13.00442,0 23.54167,10.53725 23.54167,23.54167z" fill="#845aa2"></path><path d="M56.5,89.45833h23.54167v80.04167h-23.54167zM68.20021,80.04167h-0.13183c-7.02483,0 -11.56837,-5.23567 -11.56837,-11.77554c0,-6.68113 4.68479,-11.76613 11.83675,-11.76613c7.16138,0 11.57308,5.085 11.70492,11.76613c0,6.53517 -4.54354,11.77554 -11.84146,11.77554zM169.5,169.5h-23.54167v-42.84113c0,-10.34892 -5.76771,-17.41142 -15.029,-17.41142c-7.06721,0 -10.89037,4.76483 -12.74546,9.36958c-0.678,1.64792 -0.47554,6.20558 -0.47554,8.50796v42.375h-23.54167v-80.04167h23.54167v12.317c3.39471,-5.2545 8.71042,-12.317 22.30808,-12.317c16.84642,0 29.47888,10.59375 29.47888,34.24842l0.00471,45.79325z" fill="#ffffff"></path></g></g></svg>