<svg xmlns="http://www.w3.org/2000/svg" x="0px" y="0px"
width="48" height="48"
viewBox="0 0 172 172"
style=" fill:#000000;"><g fill="none" fill-rule="nonzero" stroke="none" stroke-width="1" stroke-linecap="butt" stroke-linejoin="miter" stroke-miterlimit="10" stroke-dasharray="" stroke-dashoffset="0" font-family="none" font-weight="none" font-size="none" text-anchor="none" style="mix-blend-mode: normal"><path d="M0,172v-172h172v172z" fill="none"></path><g><path d="M161.25,58.05l-17.91667,9.85417l-17.91667,17.02083v58.40833h25.08333c5.93758,0 10.75,-4.81242 10.75,-10.75z" fill="#4caf50"></path><path d="M10.75,58.05l12.95017,6.1275l22.88317,20.7475v58.40833h-25.08333c-5.93758,0 -10.75,-4.81242 -10.75,-10.75z" fill="#1e88e5"></path><path d="M125.41667,40.13333l-39.41667,29.5625l-39.41667,-29.5625l-3.58333,20.78333l3.58333,24.00833l39.41667,29.5625l39.41667,-29.5625l3.58333,-24.00833z" fill="#e53935"></path><path d="M10.75,44.06783v13.98217l35.83333,26.875v-44.79167l-11.19433,-8.38858c-2.666,-1.9995 -5.90533,-3.07808 -9.23783,-3.07808v0c-8.50683,0 -15.40117,6.89433 -15.40117,15.40117z" fill="#c62828"></path><path d="M161.25,44.06783v13.98217l-35.83333,26.875v-44.79167l11.19433,-8.38858c2.666,-1.9995 5.90533,-3.07808 9.23783,-3.07808v0c8.50683,0 15.40117,6.89433 15.40117,15.40117z" fill="#fbc02d"></path></g></g></svg>
