<svg xmlns="http://www.w3.org/2000/svg" x="0px" y="0px"
width="48" height="48"
viewBox="0 0 172 172"
style=" fill:#000000;"><g fill="none" fill-rule="nonzero" stroke="none" stroke-width="1" stroke-linecap="butt" stroke-linejoin="miter" stroke-miterlimit="10" stroke-dasharray="" stroke-dashoffset="0" font-family="none" font-weight="none" font-size="none" text-anchor="none" style="mix-blend-mode: normal"><path d="M0,172v-172h172v172z" fill="none"></path><g><path d="M150.5,132.58333c0,9.89717 -8.02308,17.91667 -17.91667,17.91667h-93.16667c-9.89717,0 -17.91667,-8.0195 -17.91667,-17.91667v-93.16667c0,-9.89717 8.0195,-17.91667 17.91667,-17.91667h93.16667c9.89358,0 17.91667,8.0195 17.91667,17.91667z" fill="#03a9f4"></path><path d="M129,61.34667c-3.1605,1.40108 -7.16308,2.71617 -10.75,3.15333c3.64783,-2.16433 9.43492,-6.67217 10.75,-10.75c-3.40775,2.00308 -9.57108,4.14233 -13.59158,4.91633c-3.21067,-3.40417 -7.79017,-4.91633 -12.86417,-4.91633c-9.74667,0 -16.54425,8.25958 -16.54425,17.91667v7.16667c-14.33333,0 -28.30833,-10.91842 -37.00508,-21.5c-1.53008,2.58358 -2.39008,5.60792 -2.39008,8.80425c0,6.51808 5.98775,13.13292 10.7285,16.27908c-2.89175,-0.08958 -8.36708,-2.29692 -10.75,-3.58333c0,0.05733 0,0.129 0,0.20425c0,8.48175 5.95192,14.24017 14.018,15.8455c-1.47275,0.40492 -3.268,1.86692 -10.17667,1.86692c2.24317,6.93375 13.51992,10.5995 21.242,10.75c-6.0415,4.68342 -16.813,7.16667 -25.08333,7.16667c-1.42975,0 -2.20375,0.07883 -3.58333,-0.08242c7.8045,4.945 18.705,7.24908 28.66667,7.24908c32.45425,0 50.16667,-24.7895 50.16667,-47.90917c0,-0.75967 -0.02508,-3.30383 -0.0645,-4.04917c3.46867,-2.44383 4.87333,-5.00233 7.23117,-8.52833" fill="#ffffff"></path></g></g></svg>
