<svg xmlns="http://www.w3.org/2000/svg" x="0px" y="0px"
width="48" height="48"
viewBox="0 0 226 226"
style=" fill:#000000;"><g fill="none" fill-rule="nonzero" stroke="none" stroke-width="1" stroke-linecap="butt" stroke-linejoin="miter" stroke-miterlimit="10" stroke-dasharray="" stroke-dashoffset="0" font-family="none" font-weight="none" font-size="none" text-anchor="none" style="mix-blend-mode: normal"><path d="M0,226v-226h226v226z" fill="none"></path><g><path d="M197.75,174.20833c0,13.00442 -10.54196,23.54167 -23.54167,23.54167h-122.41667c-13.00442,0 -23.54167,-10.53725 -23.54167,-23.54167v-122.41667c0,-13.00442 10.53725,-23.54167 23.54167,-23.54167h122.41667c12.99971,0 23.54167,10.53725 23.54167,23.54167z" fill="#845aa2"></path><path d="M169.5,80.60667c-4.15275,1.84096 -9.41196,3.56892 -14.125,4.14333c4.79308,-2.84383 12.39704,-8.76692 14.125,-14.125c-4.47763,2.63196 -12.57596,5.44283 -17.85871,6.45983c-4.21867,-4.47292 -10.23592,-6.45983 -16.90292,-6.45983c-12.80667,0 -21.73837,10.85271 -21.73837,23.54167v9.41667c-18.83333,0 -37.19583,-14.34629 -48.62296,-28.25c-2.01046,3.39471 -3.14046,7.36854 -3.14046,11.56838c0,8.56446 7.86763,17.25604 14.09675,21.38996c-3.79963,-0.11771 -10.99396,-3.01804 -14.125,-4.70833c0,0.07533 0,0.1695 0,0.26837c0,11.14463 7.82054,18.71092 18.419,20.82025c-1.93512,0.53204 -4.294,2.45304 -13.37167,2.45304c2.94742,9.11063 17.76454,13.92725 27.911,14.125c-7.93825,6.15379 -22.0915,9.41667 -32.95833,9.41667c-1.87863,0 -2.89563,0.10358 -4.70833,-0.10829c10.25475,6.4975 24.5775,9.52496 37.66667,9.52496c42.64338,0 65.91667,-32.57225 65.91667,-62.95042c0,-0.99817 -0.03296,-4.34108 -0.08475,-5.32042c4.55767,-3.21108 6.40333,-6.57283 9.50142,-11.20583" fill="#ffffff"></path></g></g></svg>